<svg width="17" height="17" viewBox="0 0 17 17" fill="none" xmlns="http://www.w3.org/2000/svg">
<path d="M6.87898 13.4111C6.75232 13.4111 6.62565 13.3645 6.52565 13.2645L2.47898 9.21779C2.28565 9.02446 2.28565 8.70446 2.47898 8.51113L6.52565 4.46446C6.71898 4.27112 7.03898 4.27112 7.23232 4.46446C7.42565 4.65779 7.42565 4.97779 7.23232 5.17112L3.53898 8.86446L7.23232 12.5578C7.42565 12.7511 7.42565 13.0711 7.23232 13.2645C7.13898 13.3645 7.00565 13.4111 6.87898 13.4111Z" fill="white"/>
<path d="M14.1673 9.3645H2.94727C2.67393 9.3645 2.44727 9.13784 2.44727 8.8645C2.44727 8.59117 2.67393 8.3645 2.94727 8.3645H14.1673C14.4406 8.3645 14.6673 8.59117 14.6673 8.8645C14.6673 9.13784 14.4406 9.3645 14.1673 9.3645Z" fill="white"/>
</svg>
