<svg width="22" height="23" viewBox="0 0 22 23" fill="none" xmlns="http://www.w3.org/2000/svg">
<path d="M15.1507 4.12V2.74132C15.1507 2.37897 14.8503 2.07849 14.4879 2.07849C14.1256 2.07849 13.8251 2.37897 13.8251 2.74132V4.06698H8.08057V2.74132C8.08057 2.37897 7.78009 2.07849 7.41774 2.07849C7.0554 2.07849 6.75491 2.37897 6.75491 2.74132V4.12C4.36873 4.34095 3.21099 5.76382 3.03423 7.87604C3.01656 8.13233 3.22866 8.34443 3.47612 8.34443H18.4295C18.6858 8.34443 18.8979 8.12349 18.8714 7.87604C18.6947 5.76382 17.5369 4.34095 15.1507 4.12Z" fill="white"/>
<path d="M18.0222 9.67004H3.88182C3.39574 9.67004 2.99805 10.0677 2.99805 10.5538V15.9979C2.99805 18.6492 4.3237 20.4167 7.41691 20.4167H14.4871C17.5803 20.4167 18.9059 18.6492 18.9059 15.9979V10.5538C18.9059 10.0677 18.5082 9.67004 18.0222 9.67004ZM8.48627 17.0672C8.44208 17.1026 8.39789 17.1468 8.35371 17.1733C8.30068 17.2086 8.24765 17.2351 8.19463 17.2528C8.1416 17.2793 8.08857 17.297 8.03555 17.3058C7.97368 17.3147 7.92066 17.3235 7.85879 17.3235C7.7439 17.3235 7.62901 17.297 7.52296 17.2528C7.40807 17.2086 7.31969 17.1468 7.23131 17.0672C7.07224 16.8993 6.97502 16.6695 6.97502 16.4397C6.97502 16.21 7.07224 15.9802 7.23131 15.8123C7.31969 15.7327 7.40807 15.6709 7.52296 15.6267C7.68204 15.556 7.85879 15.5383 8.03555 15.5736C8.08857 15.5825 8.1416 15.6002 8.19463 15.6267C8.24765 15.6443 8.30068 15.6709 8.35371 15.7062C8.39789 15.7416 8.44208 15.7769 8.48627 15.8123C8.64535 15.9802 8.74256 16.21 8.74256 16.4397C8.74256 16.6695 8.64535 16.8993 8.48627 17.0672ZM8.48627 13.974C8.31835 14.1331 8.08857 14.2303 7.85879 14.2303C7.62901 14.2303 7.39923 14.1331 7.23131 13.974C7.07224 13.8061 6.97502 13.5763 6.97502 13.3465C6.97502 13.1168 7.07224 12.887 7.23131 12.7191C7.47877 12.4716 7.86763 12.3921 8.19463 12.5335C8.30952 12.5777 8.40673 12.6395 8.48627 12.7191C8.64535 12.887 8.74256 13.1168 8.74256 13.3465C8.74256 13.5763 8.64535 13.8061 8.48627 13.974ZM11.5795 17.0672C11.4116 17.2263 11.1818 17.3235 10.952 17.3235C10.7222 17.3235 10.4924 17.2263 10.3245 17.0672C10.1654 16.8993 10.0682 16.6695 10.0682 16.4397C10.0682 16.21 10.1654 15.9802 10.3245 15.8123C10.6515 15.4853 11.2525 15.4853 11.5795 15.8123C11.7386 15.9802 11.8358 16.21 11.8358 16.4397C11.8358 16.6695 11.7386 16.8993 11.5795 17.0672ZM11.5795 13.974C11.5353 14.0094 11.4911 14.0447 11.4469 14.0801C11.3939 14.1154 11.3409 14.1419 11.2878 14.1596C11.2348 14.1861 11.1818 14.2038 11.1287 14.2126C11.0669 14.2215 11.0139 14.2303 10.952 14.2303C10.7222 14.2303 10.4924 14.1331 10.3245 13.974C10.1654 13.8061 10.0682 13.5763 10.0682 13.3465C10.0682 13.1168 10.1654 12.887 10.3245 12.7191C10.4041 12.6395 10.5013 12.5777 10.6162 12.5335C10.9432 12.3921 11.332 12.4716 11.5795 12.7191C11.7386 12.887 11.8358 13.1168 11.8358 13.3465C11.8358 13.5763 11.7386 13.8061 11.5795 13.974ZM14.6727 17.0672C14.5048 17.2263 14.275 17.3235 14.0452 17.3235C13.8154 17.3235 13.5856 17.2263 13.4177 17.0672C13.2586 16.8993 13.1614 16.6695 13.1614 16.4397C13.1614 16.21 13.2586 15.9802 13.4177 15.8123C13.7447 15.4853 14.3457 15.4853 14.6727 15.8123C14.8318 15.9802 14.929 16.21 14.929 16.4397C14.929 16.6695 14.8318 16.8993 14.6727 17.0672ZM14.6727 13.974C14.6285 14.0094 14.5843 14.0447 14.5401 14.0801C14.4871 14.1154 14.4341 14.1419 14.381 14.1596C14.328 14.1861 14.275 14.2038 14.222 14.2126C14.1601 14.2215 14.0982 14.2303 14.0452 14.2303C13.8154 14.2303 13.5856 14.1331 13.4177 13.974C13.2586 13.8061 13.1614 13.5763 13.1614 13.3465C13.1614 13.1168 13.2586 12.887 13.4177 12.7191C13.5061 12.6395 13.5945 12.5777 13.7094 12.5335C13.8684 12.4628 14.0452 12.4451 14.222 12.4804C14.275 12.4893 14.328 12.507 14.381 12.5335C14.4341 12.5511 14.4871 12.5777 14.5401 12.613C14.5843 12.6484 14.6285 12.6837 14.6727 12.7191C14.8318 12.887 14.929 13.1168 14.929 13.3465C14.929 13.5763 14.8318 13.8061 14.6727 13.974Z" fill="white"/>
</svg>
