<svg width="19" height="21" viewBox="0 0 19 21" fill="none" xmlns="http://www.w3.org/2000/svg">
<path fill-rule="evenodd" clip-rule="evenodd" d="M13.9678 0.926726V1.96162C16.9765 2.25351 18.5156 3.91642 18.5156 6.90611V15.1764C18.5156 18.5022 16.62 20.1917 12.8895 20.1917H6.14171C2.41128 20.1917 0.515625 18.5022 0.515625 15.1764V6.90611C0.515625 4.91593 1.19389 3.49184 2.58519 2.66039C2.80451 2.51069 3.08825 2.50024 3.31764 2.63341C3.54703 2.76659 3.68249 3.02041 3.66732 3.28863C3.65214 3.55685 3.48895 3.7932 3.24606 3.89873C2.32432 4.44713 1.88954 5.40242 1.88954 6.90611V7.17146H14.5765C14.9559 7.17146 15.2635 7.48431 15.2635 7.87024C15.2635 8.25616 14.9559 8.56901 14.5765 8.56901H1.88954V15.1764C1.88954 17.715 3.12432 18.7676 6.14171 18.7853H12.8895C15.8635 18.7853 17.133 17.7061 17.133 15.1676V6.89726C17.133 4.68595 16.1678 3.61568 13.9678 3.35917V4.0314C13.9171 4.38971 13.6087 4.65129 13.253 4.63764C12.8974 4.62399 12.6092 4.33951 12.5852 3.97833V0.86481C12.5919 0.677833 12.6721 0.501418 12.8078 0.375063C12.9434 0.248709 13.1232 0.182972 13.3069 0.192572C13.6857 0.216261 13.9779 0.540882 13.9678 0.926726ZM6.2244 4.48444C6.09368 4.61574 5.91671 4.68832 5.73302 4.68595C5.35702 4.6763 5.05857 4.36088 5.06345 3.97833V0.926726C5.10298 0.568737 5.40061 0.298098 5.75476 0.298098C6.1089 0.298098 6.40653 0.568737 6.44606 0.926726V1.89086H10.3765C10.7559 1.89086 11.0635 2.20371 11.0635 2.58963C11.0635 2.97555 10.7559 3.2884 10.3765 3.2884H6.42867V3.98718C6.42868 4.17405 6.35512 4.35314 6.2244 4.48444ZM13.7069 10.8069C13.2267 10.8069 12.8374 11.2029 12.8374 11.6914C12.8374 12.1799 13.2267 12.5759 13.7069 12.5759C14.1872 12.5759 14.5765 12.1799 14.5765 11.6914C14.5765 11.4552 14.4837 11.2289 14.3187 11.0628C14.1538 10.8966 13.9304 10.8045 13.6982 10.8069H13.7069ZM8.66345 11.6914C8.66345 11.2029 9.05277 10.8069 9.53302 10.8069C10.0133 10.8069 10.4026 11.2029 10.4026 11.6914C10.4026 12.1799 10.0133 12.5759 9.53302 12.5759C9.05277 12.5759 8.66345 12.1799 8.66345 11.6914ZM5.3678 10.8069C4.88755 10.8069 4.49823 11.2029 4.49823 11.6914C4.49823 12.1799 4.88755 12.5759 5.3678 12.5759C5.84805 12.5759 6.23736 12.1799 6.23736 11.6914C6.23738 11.4552 6.14457 11.2289 5.97961 11.0628C5.81465 10.8966 5.59123 10.8045 5.3591 10.8069H5.3678ZM12.8374 15.2737C12.8374 14.7852 13.2267 14.3892 13.7069 14.3892H13.6982C13.9304 14.3868 14.1538 14.479 14.3187 14.6451C14.4837 14.8112 14.5765 15.0376 14.5765 15.2737C14.5765 15.7622 14.1872 16.1582 13.7069 16.1582C13.2267 16.1582 12.8374 15.7622 12.8374 15.2737ZM9.53302 14.3892C9.05277 14.3892 8.66345 14.7852 8.66345 15.2737C8.66345 15.7622 9.05277 16.1582 9.53302 16.1582C10.0133 16.1582 10.4026 15.7622 10.4026 15.2737C10.4026 14.7852 10.0133 14.3892 9.53302 14.3892ZM4.49823 15.2737C4.49823 14.7852 4.88755 14.3892 5.3678 14.3892H5.3591C5.59123 14.3868 5.81465 14.479 5.97961 14.6451C6.14457 14.8112 6.23738 15.0376 6.23736 15.2737C6.23736 15.7622 5.84805 16.1582 5.3678 16.1582C4.88755 16.1582 4.49823 15.7622 4.49823 15.2737Z" fill="white"/>
</svg>
