<svg width="18" height="17" viewBox="0 0 18 17" fill="none" xmlns="http://www.w3.org/2000/svg">
<path d="M9.16903 15.9766C5.06032 15.9766 1.7207 12.637 1.7207 8.52828C1.7207 4.41958 5.06032 1.07996 9.16903 1.07996C13.2777 1.07996 16.6174 4.41958 16.6174 8.52828C16.6174 12.637 13.2777 15.9766 9.16903 15.9766ZM9.16903 2.11926C5.6354 2.11926 2.76 4.99466 2.76 8.52828C2.76 12.0619 5.6354 14.9373 9.16903 14.9373C12.7027 14.9373 15.5781 12.0619 15.5781 8.52828C15.5781 4.99466 12.7027 2.11926 9.16903 2.11926Z" fill="white"/>
<path d="M11.74 11.2513C11.6499 11.2513 11.5599 11.2305 11.4767 11.1751L9.32883 9.89328C8.79532 9.57456 8.40039 8.87476 8.40039 8.25811V5.41736C8.40039 5.13328 8.63597 4.89771 8.92004 4.89771C9.20412 4.89771 9.43969 5.13328 9.43969 5.41736V8.25811C9.43969 8.50754 9.64755 8.87476 9.86234 8.99948L12.0102 10.2813C12.2597 10.4268 12.3359 10.7455 12.1904 10.9949C12.0864 11.1612 11.9132 11.2513 11.74 11.2513Z" fill="white"/>
</svg>
