<svg width="23" height="24" viewBox="0 0 23 24" fill="none" xmlns="http://www.w3.org/2000/svg">
<path d="M5.18595 3.89925C5.12401 3.82944 5.04884 3.77261 4.96478 3.73207C4.88072 3.69152 4.78945 3.66806 4.69626 3.66305C4.60307 3.65803 4.50981 3.67156 4.42189 3.70286C4.33396 3.73415 4.25313 3.78259 4.18406 3.84535C4.11499 3.90812 4.05907 3.98397 4.01954 4.06851C3.98 4.15305 3.95764 4.24459 3.95374 4.33784C3.94984 4.43108 3.96449 4.52417 3.99684 4.61171C4.02919 4.69925 4.07859 4.77951 4.14218 4.84781L6.13803 7.04378C4.69227 9.22212 3.95881 11.4066 3.95881 13.5418C3.95889 15.0654 4.40762 16.5552 5.249 17.8255C6.09039 19.0957 7.28718 20.09 8.69006 20.6844C10.0929 21.2788 11.6398 21.447 13.1376 21.1679C14.6355 20.8888 16.0179 20.1748 17.1126 19.115L18.2472 20.3633C18.3091 20.4331 18.3843 20.4899 18.4683 20.5305C18.5524 20.571 18.6437 20.5945 18.7368 20.5995C18.83 20.6045 18.9233 20.591 19.0112 20.5597C19.0991 20.5284 19.18 20.48 19.249 20.4172C19.3181 20.3544 19.374 20.2786 19.4136 20.194C19.4531 20.1095 19.4755 20.018 19.4794 19.9247C19.4833 19.8315 19.4686 19.7384 19.4363 19.6508C19.4039 19.5633 19.3545 19.483 19.2909 19.4147L5.18595 3.89925ZM11.7166 19.889C10.0337 19.8872 8.42037 19.2178 7.23044 18.0279C6.0405 16.838 5.37118 15.2246 5.36931 13.5418C5.36931 11.7848 5.95819 9.96528 7.12009 8.1237L16.1623 18.0695C14.9768 19.2363 13.3799 19.8899 11.7166 19.889ZM8.36662 5.30006C8.23125 5.17099 8.1527 4.99344 8.14824 4.80646C8.14377 4.61948 8.21377 4.43839 8.34282 4.30301C9.25104 3.34067 10.2448 2.46285 11.3119 1.68036C11.4305 1.59729 11.5718 1.55273 11.7166 1.55273C11.8613 1.55273 12.0026 1.59729 12.1212 1.68036C12.4218 1.89017 19.4743 6.90362 19.4743 13.5418C19.4747 14.2387 19.3813 14.9326 19.1966 15.6046C19.1557 15.7535 19.067 15.8849 18.9442 15.9785C18.8215 16.0722 18.6713 16.1229 18.5169 16.123C18.4532 16.1236 18.3897 16.1152 18.3283 16.0983C18.1481 16.0487 17.9949 15.9295 17.9025 15.767C17.8101 15.6045 17.786 15.412 17.8355 15.2317C17.9867 14.6811 18.0635 14.1128 18.0638 13.5418C18.0638 8.49572 13.1729 4.28538 11.7166 3.13935C10.8832 3.79443 10.0978 4.50826 9.36631 5.27537C9.30242 5.34285 9.22582 5.39704 9.14092 5.43482C9.05603 5.4726 8.9645 5.49323 8.8716 5.49553C8.7787 5.49782 8.68626 5.48173 8.5996 5.44819C8.51294 5.41464 8.43376 5.3643 8.36662 5.30006Z" fill="#A69AFF"/>
</svg>
