<svg width="17" height="17" viewBox="0 0 17 17" fill="none" xmlns="http://www.w3.org/2000/svg">
<path d="M12.149 15.9766H5.22032C2.16477 15.9766 1.23633 15.0482 1.23633 11.9926V5.06394C1.23633 2.0084 2.16477 1.07996 5.22032 1.07996H6.25962C7.47214 1.07996 7.85321 1.47489 8.33822 2.11926L9.37752 3.50499C9.60617 3.80985 9.64081 3.85143 10.0704 3.85143H12.149C15.2045 3.85143 16.133 4.77987 16.133 7.83541V11.9926C16.133 15.0482 15.2045 15.9766 12.149 15.9766ZM5.22032 2.11926C2.73985 2.11926 2.27563 2.59041 2.27563 5.06394V11.9926C2.27563 14.4662 2.73985 14.9373 5.22032 14.9373H12.149C14.6295 14.9373 15.0937 14.4662 15.0937 11.9926V7.83541C15.0937 5.36188 14.6295 4.89073 12.149 4.89073H10.0704C9.18352 4.89073 8.89251 4.58587 8.54608 4.12857L7.50678 2.74284C7.14649 2.26476 7.03563 2.11926 6.25962 2.11926H5.22032Z" fill="white"/>
<path d="M14.2286 5.15402C13.9445 5.15402 13.7089 4.91844 13.7089 4.63437V3.67821C13.7089 2.58348 13.2447 2.11926 12.15 2.11926H5.91418C5.63011 2.11926 5.39453 1.88368 5.39453 1.59961C5.39453 1.31553 5.63011 1.07996 5.91418 1.07996H12.15C13.8267 1.07996 14.7482 2.00147 14.7482 3.67821V4.63437C14.7482 4.91844 14.5127 5.15402 14.2286 5.15402Z" fill="white"/>
</svg>
