<svg width="17" height="21" viewBox="0 0 17 21" fill="none" xmlns="http://www.w3.org/2000/svg">
<path fill-rule="evenodd" clip-rule="evenodd" d="M8.49993 0.977783H8.5333C13.2197 0.996199 17.0183 4.81975 16.9999 9.5001V9.59306C16.9366 12.9378 14.9258 15.7134 13.2504 17.4524C12.7736 17.9496 12.2661 18.4267 11.7427 18.8722C11.4292 19.1397 10.9586 19.1028 10.6908 18.7898C10.423 18.4758 10.4607 18.0058 10.7742 17.7383C11.2589 17.3252 11.7304 16.8815 12.1739 16.4193C13.6649 14.8724 15.4527 12.4265 15.5071 9.56587C15.522 5.63621 12.3916 2.48353 8.52715 2.46774H8.49993C4.64862 2.46774 1.50768 5.58973 1.49276 9.43871C1.55861 11.34 2.20138 13.1474 3.35256 14.6637C4.69604 16.4527 6.73409 18.3469 8.67116 19.608C9.01713 19.8325 9.1146 20.2938 8.88893 20.6393C8.74668 20.8585 8.50696 20.9778 8.26285 20.9778C8.12323 20.9778 7.98274 20.9392 7.85629 20.8568C5.78224 19.5071 3.5993 17.4778 2.16011 15.5617C0.824529 13.8016 0.0772721 11.7013 0 9.49046C0.0184399 4.76363 3.82848 0.977783 8.49993 0.977783ZM6.75516 9.59192C6.75516 10.5504 7.53667 11.3318 8.4973 11.3318C9.45793 11.3318 10.2394 10.5504 10.2394 9.59192C10.2394 8.63252 9.45793 7.85115 8.4973 7.85115C8.08547 7.85115 7.75092 7.5179 7.75092 7.10661C7.75092 6.69444 8.08547 6.36119 8.4973 6.36119C10.2807 6.36119 11.7322 7.80993 11.7322 9.59192C11.7322 11.373 10.2807 12.8218 8.4973 12.8218C6.71389 12.8218 5.26241 11.373 5.26241 9.59192C5.26241 9.17975 5.59696 8.8465 6.00879 8.8465C6.42061 8.8465 6.75516 9.17975 6.75516 9.59192Z" fill="white"/>
</svg>
