<svg width="23" height="23" viewBox="0 0 23 23" fill="none" xmlns="http://www.w3.org/2000/svg">
<path d="M20.3422 9.31644C20.0099 8.9691 19.6661 8.61119 19.5365 8.29647C19.4166 8.0082 19.4096 7.53039 19.4025 7.06757C19.3893 6.20717 19.3752 5.23216 18.6973 4.55424C18.0193 3.87632 17.0443 3.86222 16.1839 3.84899C15.7211 3.84194 15.2433 3.83489 14.955 3.71499C14.6412 3.58541 14.2824 3.2416 13.9351 2.90925C13.3268 2.32477 12.6356 1.66272 11.7153 1.66272C10.7949 1.66272 10.1047 2.32477 9.49551 2.90925C9.14818 3.2416 8.79027 3.58541 8.47555 3.71499C8.18904 3.83489 7.70947 3.84194 7.24665 3.84899C6.38625 3.86222 5.41124 3.87632 4.73332 4.55424C4.0554 5.23216 4.0457 6.20717 4.02807 7.06757C4.02102 7.53039 4.01396 8.0082 3.89407 8.29647C3.76448 8.61031 3.42067 8.9691 3.08832 9.31644C2.50385 9.92472 1.8418 10.6159 1.8418 11.5362C1.8418 12.4566 2.50385 13.1468 3.08832 13.756C3.42067 14.1033 3.76448 14.4612 3.89407 14.7759C4.01396 15.0642 4.02102 15.542 4.02807 16.0048C4.04129 16.8652 4.0554 17.8403 4.73332 18.5182C5.41124 19.1961 6.38625 19.2102 7.24665 19.2234C7.70947 19.2305 8.18728 19.2375 8.47555 19.3574C8.78938 19.487 9.14818 19.8308 9.49551 20.1632C10.1038 20.7476 10.7949 21.4097 11.7153 21.4097C12.6356 21.4097 13.3259 20.7476 13.9351 20.1632C14.2824 19.8308 14.6403 19.487 14.955 19.3574C15.2433 19.2375 15.7211 19.2305 16.1839 19.2234C17.0443 19.2102 18.0193 19.1961 18.6973 18.5182C19.3752 17.8403 19.3893 16.8652 19.4025 16.0048C19.4096 15.542 19.4166 15.0642 19.5365 14.7759C19.6661 14.4621 20.0099 14.1033 20.3422 13.756C20.9267 13.1477 21.5888 12.4566 21.5888 11.5362C21.5888 10.6159 20.9267 9.9256 20.3422 9.31644ZM19.324 12.7801C18.9018 13.2209 18.4645 13.6766 18.2327 14.2364C18.0105 14.7742 18.0008 15.3886 17.992 15.9837C17.9832 16.6008 17.9735 17.247 17.6993 17.5202C17.4252 17.7935 16.7834 17.8041 16.1628 17.8129C15.5677 17.8217 14.9533 17.8314 14.4155 18.0536C13.8557 18.2854 13.4 18.7227 12.9592 19.145C12.5184 19.5672 12.0679 19.9992 11.7153 19.9992C11.3627 19.9992 10.9087 19.5655 10.4714 19.145C10.0341 18.7245 9.57486 18.2854 9.01506 18.0536C8.47731 17.8314 7.86286 17.8217 7.26781 17.8129C6.65072 17.8041 6.00453 17.7944 5.73125 17.5202C5.45796 17.2461 5.44738 16.6043 5.43857 15.9837C5.42975 15.3886 5.42006 14.7742 5.1979 14.2364C4.96605 13.6766 4.5288 13.2209 4.10653 12.7801C3.68426 12.3393 3.2523 11.8888 3.2523 11.5362C3.2523 11.1836 3.68602 10.7296 4.10653 10.2923C4.52703 9.85507 4.96605 9.39578 5.1979 8.83599C5.42006 8.29823 5.42975 7.68379 5.43857 7.08873C5.44738 6.47164 5.45708 5.82545 5.73125 5.55217C6.00541 5.27889 6.64719 5.26831 7.26781 5.25949C7.86286 5.25068 8.47731 5.24098 9.01506 5.01882C9.57486 4.78697 10.0306 4.34972 10.4714 3.92745C10.9122 3.50518 11.3627 3.07322 11.7153 3.07322C12.0679 3.07322 12.5219 3.50695 12.9592 3.92745C13.3964 4.34796 13.8557 4.78697 14.4155 5.01882C14.9533 5.24098 15.5677 5.25068 16.1628 5.25949C16.7799 5.26831 17.426 5.278 17.6993 5.55217C17.9726 5.82633 17.9832 6.46811 17.992 7.08873C18.0008 7.68379 18.0105 8.29823 18.2327 8.83599C18.4645 9.39578 18.9018 9.85155 19.324 10.2923C19.7463 10.7331 20.1783 11.1836 20.1783 11.5362C20.1783 11.8888 19.7445 12.3428 19.324 12.7801ZM15.7405 8.9215C15.8061 8.987 15.8581 9.06478 15.8936 9.15039C15.9291 9.23601 15.9473 9.32778 15.9473 9.42046C15.9473 9.51314 15.9291 9.60491 15.8936 9.69053C15.8581 9.77615 15.8061 9.85393 15.7405 9.91943L10.8038 14.8562C10.7383 14.9217 10.6605 14.9738 10.5749 15.0093C10.4892 15.0447 10.3975 15.063 10.3048 15.063C10.2121 15.063 10.1203 15.0447 10.0347 15.0093C9.9491 14.9738 9.87132 14.9217 9.80582 14.8562L7.69008 12.7404C7.55774 12.6081 7.4834 12.4286 7.4834 12.2415C7.4834 12.0543 7.55774 11.8748 7.69008 11.7425C7.82241 11.6102 8.00189 11.5358 8.18904 11.5358C8.37619 11.5358 8.55567 11.6102 8.688 11.7425L10.3048 13.3602L14.7426 8.9215C14.8081 8.85593 14.8858 8.80391 14.9715 8.76842C15.0571 8.73293 15.1489 8.71466 15.2415 8.71466C15.3342 8.71466 15.426 8.73293 15.5116 8.76842C15.5972 8.80391 15.675 8.85593 15.7405 8.9215Z" fill="#A69AFF"/>
</svg>
