<svg width="23" height="24" viewBox="0 0 23 24" fill="none" xmlns="http://www.w3.org/2000/svg">
<path d="M18.7684 3.47803H4.66343C4.28934 3.47803 3.93057 3.62663 3.66606 3.89115C3.40154 4.15567 3.25293 4.51444 3.25293 4.88853V18.9935C3.25293 19.3676 3.40154 19.7264 3.66606 19.9909C3.93057 20.2554 4.28934 20.404 4.66343 20.404H18.7684C19.1425 20.404 19.5013 20.2554 19.7658 19.9909C20.0303 19.7264 20.1789 19.3676 20.1789 18.9935V4.88853C20.1789 4.51444 20.0303 4.15567 19.7658 3.89115C19.5013 3.62663 19.1425 3.47803 18.7684 3.47803ZM18.7684 18.9935H4.66343V4.88853H18.7684V18.9935ZM11.7159 6.29902C10.6 6.29902 9.50922 6.62992 8.5814 7.24987C7.65358 7.86982 6.93043 8.75098 6.5034 9.78192C6.07637 10.8129 5.96464 11.9473 6.18234 13.0417C6.40003 14.1362 6.93738 15.1415 7.72643 15.9305C8.51548 16.7196 9.52078 17.2569 10.6152 17.4746C11.7097 17.6923 12.8441 17.5806 13.875 17.1535C14.906 16.7265 15.7871 16.0034 16.4071 15.0755C17.027 14.1477 17.3579 13.0569 17.3579 11.941C17.3563 10.4452 16.7613 9.01106 15.7036 7.95333C14.6459 6.89561 13.2118 6.30066 11.7159 6.29902ZM11.7159 16.1725C10.879 16.1725 10.0609 15.9243 9.36503 15.4594C8.66916 14.9944 8.1268 14.3335 7.80653 13.5603C7.48626 12.7871 7.40246 11.9363 7.56573 11.1155C7.72901 10.2947 8.13202 9.54068 8.7238 8.9489C9.31559 8.35711 10.0696 7.9541 10.8904 7.79083C11.7112 7.62756 12.562 7.71135 13.3352 8.03163C14.1084 8.3519 14.7693 8.89426 15.2343 9.59013C15.6992 10.286 15.9474 11.1041 15.9474 11.941C15.9462 13.0629 15.5001 14.1385 14.7068 14.9318C13.9134 15.7252 12.8378 16.1713 11.7159 16.1725ZM18.0632 6.65165C18.0632 6.86088 18.0011 7.06541 17.8849 7.23937C17.7686 7.41334 17.6034 7.54893 17.4101 7.629C17.2168 7.70906 17.0041 7.73001 16.7989 7.6892C16.5937 7.64838 16.4052 7.54763 16.2573 7.39968C16.1093 7.25173 16.0086 7.06324 15.9677 6.85803C15.9269 6.65282 15.9479 6.44012 16.0279 6.24682C16.108 6.05352 16.2436 5.8883 16.4176 5.77206C16.5915 5.65582 16.7961 5.59378 17.0053 5.59378C17.2859 5.59378 17.5549 5.70523 17.7533 5.90362C17.9517 6.10201 18.0632 6.37108 18.0632 6.65165ZM11.5096 11.0295L10.0991 12.44C9.9668 12.5723 9.78732 12.6467 9.60017 12.6467C9.41303 12.6467 9.23354 12.5723 9.10121 12.44C8.96888 12.3076 8.89453 12.1282 8.89453 11.941C8.89453 11.7539 8.96888 11.5744 9.10121 11.4421L10.5117 10.0316C10.644 9.89922 10.8235 9.82488 11.0107 9.82488C11.1978 9.82488 11.3773 9.89922 11.5096 10.0316C11.642 10.1639 11.7163 10.3434 11.7163 10.5305C11.7163 10.7177 11.642 10.8972 11.5096 11.0295ZM14.3306 10.7368C14.3962 10.8023 14.4482 10.8801 14.4837 10.9657C14.5192 11.0513 14.5375 11.1431 14.5375 11.2358C14.5375 11.3284 14.5192 11.4202 14.4837 11.5058C14.4482 11.5915 14.3962 11.6692 14.3306 11.7347L11.5096 14.5557C11.4441 14.6213 11.3663 14.6732 11.2807 14.7087C11.1951 14.7442 11.1033 14.7624 11.0107 14.7624C10.918 14.7624 10.8262 14.7442 10.7406 14.7087C10.655 14.6732 10.5772 14.6213 10.5117 14.5557C10.4462 14.4902 10.3942 14.4124 10.3587 14.3268C10.3233 14.2412 10.305 14.1494 10.305 14.0568C10.305 13.9641 10.3233 13.8723 10.3587 13.7867C10.3942 13.7011 10.4462 13.6233 10.5117 13.5578L13.3327 10.7368C13.3982 10.6712 13.476 10.6192 13.5616 10.5837C13.6472 10.5482 13.739 10.53 13.8317 10.53C13.9243 10.53 14.0161 10.5482 14.1017 10.5837C14.1874 10.6192 14.2651 10.6712 14.3306 10.7368Z" fill="#A69AFF"/>
</svg>
